inDegrees=yes
name=ik_appendData_armMove
DataType=double
version=3
OpenSimVersion=4.5
endheader
time	pelvis_tilt	pelvis_list	pelvis_rotation	pelvis_tx	pelvis_ty	pelvis_tz	hip_flexion_r	hip_adduction_r	hip_rotation_r	knee_angle_r	knee_angle_r_beta	ankle_angle_r	subtalar_angle_r	mtp_angle_r	hip_flexion_l	hip_adduction_l	hip_rotation_l	knee_angle_l	knee_angle_l_beta	ankle_angle_l	subtalar_angle_l	mtp_angle_l	lumbar_extension	lumbar_bending	lumbar_rotation	arm_flex_r	arm_add_r	arm_rot_r	elbow_flex_r	pro_sup_r	wrist_flex_r	wrist_dev_r	arm_flex_l	arm_add_l	arm_rot_l	elbow_flex_l	pro_sup_l	wrist_flex_l	wrist_dev_l
150	0.05027489047167576	89.66083237424992	-0.0260093737343694	0	0.9399999999999999	0	44.96207403879227	-10.00006637526635	0	59.99351056052745	1.047084289111193	-5.0000018431009	0	0	44.96207403879227	-10.00006637526635	0	59.99351056052745	1.047084289111193	-5.0000018431009	0	0	-0.002084602995887044	0.351982333285658	-0.01539437874960294	0	-14.30257899160499	0	75.10878270264658	44.99970135264839	0	0	-14.80838539558639	-5.48940647393511	17.23610422073591	0.02377241042016275	44.99970135264839	0	0
151	0.05051462281509931	89.65905162410787	-0.04762331992242162	0	0.9399999999999999	0	44.96252548332004	-10.00006451109763	0	59.99358919976488	1.047085661624807	-5.000001776591417	0	0	44.96252548332004	-10.00006451109763	0	59.99358919976488	1.047085661624807	-5.000001776591417	0	0	-0.001656188209963939	0.3478818709750718	0.008005589402804245	0	-14.30764979385368	0	75.10748992876231	44.99970853951517	0	0	-9.500481909184211	-3.416848780106315	13.03594158898729	0.03530864491412256	44.99970853951517	0	0
152	0.06709076306402512	89.65517257234801	-0.07198372538536481	0	0.9399999999999999	0	44.96282635434353	-10.00006328512799	0	59.99364172777465	1.047086578411527	-5.000001732993675	0	0	44.96282635434353	-10.00006328512799	0	59.99364172777465	1.047086578411527	-5.000001732993675	0	0	-0.006640555847144616	0.3416003107409306	0.009576126355478401	0	-14.31104647712969	0	75.10662834293689	44.9997132792266	0	0	-6.068471801670867	-1.390853340858773	8.397240003186443	0.1698140682390186	44.9997132792266	0	0
153	0.0690397131620757	89.65508672789045	-0.07469948124779666	0	0.9399999999999999	0	44.96335905975575	-10.00006113192803	0	59.99373440477207	1.047088195930273	-5.000001656705537	0	0	44.96335905975575	-10.00006113192803	0	59.99373440477207	1.047088195930273	-5.000001656705537	0	0	0.001653292193990018	0.3503485950378986	0.006732369847278437	0	-14.31706730588777	0	75.10510286723922	44.99972162451487	0	0	-4.115947214701758	-2.597351745540567	0.1505936742372955	3.051009899397043	44.99972162451487	0	0
154	0.06754190390257339	89.65150358479887	-0.07031900173096184	0	0.9399999999999999	0	44.9634534453696	-10.0000607437921	0	59.99375059113135	1.047088478435536	-5.000001642884865	0	0	44.9634534453696	-10.0000607437921	0	59.99375059113135	1.047088478435536	-5.000001642884865	0	0	-0.006269427916191084	0.3497196196502084	0.001946321972945056	0	-14.3181274752068	0	75.10483258096951	44.99972312290012	0	0	-4.553216673563437	-2.616263260248455	-1.740783892279406	3.321091590464148	44.99972312290012	0	0
155	0.07095818507528928	89.65683228046068	-0.0653999512815874	0	0.9399999999999999	0	44.96346641204819	-10.00006066914872	0	59.99375238361382	1.047088509720257	-5.000001640018096	0	0	44.96346641204819	-10.00006066914872	0	59.99375238361382	1.047088509720257	-5.000001640018096	0	0	-0.009962310883884426	0.3460079363724013	-0.001473045628146258	0	-14.3182519779834	0	75.10479544910207	44.99972339265184	0	0	-3.82081926842621	-1.772011956177779	-1.417040086650665	1.581217760047868	44.99972339265184	0	0
156	0.06912680907067018	89.65558856597198	-0.07063971107106079	0	0.9399999999999999	0	44.96347801686509	-10.00006060248342	0	59.99375398957329	1.047088537749538	-5.000001637459245	0	0	44.96347801686509	-10.00006060248342	0	59.99375398957329	1.047088537749538	-5.000001637459245	0	0	-0.00517075746371983	0.3391495867594402	0.002714023339219275	0	-14.31836350377236	0	75.10476221711286	44.99972363368234	0	0	-3.099690062659086	-0.1006139735779069	-1.884894780205597	0.09828132036798146	44.99972363368234	0	0
157	0.06745756163327665	89.65743787198831	-0.07101131340773888	0	0.9399999999999999	0	44.96363841819311	-10.0000599584115	0	59.99378180703946	1.047089023255912	-5.000001614673841	0	0	44.96363841819311	-10.0000599584115	0	59.99378180703946	1.047089023255912	-5.000001614673841	0	0	-0.00330853800081335	0.3445132717549871	0.01435752495900572	0	-14.32018102237025	0	75.10430288569987	44.99972613330175	0	0	-2.618912167150746	2.861020507096546	-3.369247499013859	0.01816506440325686	44.99972613330175	0	0
158	0.1022798296468829	89.65657398104604	-0.1009081639772716	0	0.9399999999999999	0	44.96439993465278	-10.00005605375077	0	59.99389784544756	1.047091048508192	-5.000001468723521	0	0	44.96439993465278	-10.00005605375077	0	59.99389784544756	1.047091048508192	-5.000001468723521	0	0	0.002307669515082173	0.3434938421241037	0.0005739885744540945	0	-14.32795636658367	0	75.10212217834922	44.99974056477319	0	0	-3.904136956576254	8.298402264282457	-5.247385634307963	0.008377970712526047	44.99974056477319	0	0
159	0.2269199384469838	89.65490943987176	-0.2223046818912212	0	0.9399999999999999	0	44.9653460245793	-10.00005151523286	0	59.99404304319935	1.047093582687027	-5.000001303308435	0	0	44.9653460245793	-10.00005151523286	0	59.99404304319935	1.047093582687027	-5.000001303308435	0	0	0.003156342857223687	0.3429583173795659	-0.0003568453473901918	0	-14.33777409927424	0	75.09941291939211	44.99975764531385	0	0	-5.768637562695868	15.00505625247596	-7.947283107195738	0.004993343220070117	44.99975764531385	0	0
160	0.4296355048134348	89.65483425603861	-0.4271415308561435	0	0.9399999999999999	0	44.96632245408046	-10.00004713922732	0	59.99419429488479	1.047096222526937	-5.000001147947214	0	0	44.96632245408046	-10.00004713922732	0	59.99419429488479	1.047096222526937	-5.000001147947214	0	0	0.007099001469630427	0.3445819767618193	0.006777708922243185	0	-14.34807701950342	0	75.09661677881203	44.99977442413713	0	0	-7.956525198431317	22.64855014777223	-10.8708069404757	0.003654927167070612	44.99977442413713	0	0
